<?xml version="1.0" standalone="no"?><!DOCTYPE svg PUBLIC "-//W3C//DTD SVG 1.1//EN" "http://www.w3.org/Graphics/SVG/1.1/DTD/svg11.dtd"><svg t="1583552143200" class="icon" viewBox="0 0 1024 1024" version="1.1" xmlns="http://www.w3.org/2000/svg" p-id="5424" xmlns:xlink="http://www.w3.org/1999/xlink" width="300" height="300"><defs><style type="text/css">@font-face { font-family: Georgia; src: local("Source Han Serif SC"); }
@font-face { font-family: Times; src: local("Source Han Serif SC"); }
@font-face { font-family: "Time New Roman"; src: local("Source Han Serif SC"); }
@font-face { font-family: Arial; src: local("Source Han Sans SC"); }
@font-face { font-family: Helvetica; src: local("Source Han Sans SC"); }
@font-face { font-family: "Helvetica Neue"; src: local("Source Han Sans SC"); }
@font-face { font-family: "Segoe UI"; src: local("Source Han Sans SC"); }
@font-face { font-family: Tahoma; src: local("Source Han Sans SC"); }
@font-face { font-family: Trebuchet; src: local("Source Han Sans SC"); }
@font-face { font-family: "Trebuchet MS"; src: local("Source Han Sans SC"); }
@font-face { font-family: Verdana; src: local("Source Han Sans SC"); }
@font-face { font-family: Consolas; src: local("Source Code Pro"); }
@font-face { font-family: Courier; src: local("Source Code Pro"); }
@font-face { font-family: "Courier New"; src: local("Source Code Pro"); }
@font-face { font-family: SimSun; src: local("Source Han Sans SC"); }
@font-face { font-family: SimSun-ExtB; src: local("Source Han Sans SC"); }
@font-face { font-family: 宋体; src: local("Source Han Sans SC"); }
@font-face { font-family: NSimSun; src: local("Source Han Sans SC"); }
@font-face { font-family: 新宋体; src: local("Source Han Sans SC"); }
@font-face { font-family: SimHei; src: local("Source Han Sans SC"); }
@font-face { font-family: 黑体; src: local("Source Han Sans SC"); }
@font-face { font-family: "Microsoft YaHei"; src: local("Source Han Sans SC"); }
@font-face { font-family: 微软雅黑; src: local("Source Han Sans SC"); }
@font-face { font-family: "STHeiti SC"; src: local("Source Han Sans SC"); }
@font-face { font-family: "PingFang SC"; src: local("Source Han Sans SC"); }
@font-face { font-family: 苹方-简; src: local("Source Han Sans SC"); }
@font-face { font-family: MingLiU; src: local("Source Han Sans TC"); }
@font-face { font-family: MingLiU-ExtB; src: local("Source Han Sans TC"); }
@font-face { font-family: PMingLiU; src: local("Source Han Sans TC"); }
@font-face { font-family: PMingLiU-ExtB; src: local("Source Han Sans TC"); }
@font-face { font-family: "Microsoft JhengHei"; src: local("Source Han Sans TC"); }
@font-face { font-family: 微軟正黑體; src: local("Source Han Sans TC"); }
@font-face { font-family: "STHeiti TC"; src: local("Source Han Sans TC"); }
@font-face { font-family: "PingFang TC"; src: local("Source Han Sans TC"); }
@font-face { font-family: 蘋方-繁; src: local("Source Han Sans TC"); }
@font-face { font-family: MingLiU_HKSCS; src: local("Source Han Sans HC"); }
@font-face { font-family: MingLiU_HKSCS-ExtB; src: local("Source Han Sans HC"); }
@font-face { font-family: "PingFang HK"; src: local("Source Han Sans HC"); }
@font-face { font-family: 蘋方-港; src: local("Source Han Sans HC"); }
@font-face { font-family: "MS Gothic"; src: local("Source Han Sans"); }
@font-face { font-family: "MS PGothic"; src: local("Source Han Sans"); }
@font-face { font-family: "MS UI Gothic"; src: local("Source Han Sans"); }
@font-face { font-family: "Yu Gothic"; src: local("Source Han Sans"); }
@font-face { font-family: "Yu Gothic UI"; src: local("Source Han Sans"); }
@font-face { font-family: "Malgun Gothic"; src: local("Source Han Sans K"); }
</style></defs><path d="M380.571429 274.857143q-34.285714 52.571429-78.285714 156-12.571429-25.714286-21.142857-41.428571t-23.142857-36.285714-29.142857-32.285714-36-20-46.571429-8.285714l-128 0q-8 0-13.142857-5.142857t-5.142857-13.142857l0-109.714286q0-8 5.142857-13.142857t13.142857-5.142857l128 0q142.857143 0 234.285714 128.571429zm643.428571 456.571429q0 8-5.142857 13.142857l-182.857143 182.857143q-5.142857 5.142857-13.142857 5.142857-7.428571 0-12.857143-5.428571t-5.428571-12.857143l0-109.714286q-18.285714 0-48.571429 2.857143t-46.285714 0.571429-41.714286-0.571429-40.571429-2.857143-36.571429-6-36-10.571429-33.142857-16.285714-33.714286-22.857143-31.428571-30.571429-32-39.714286q33.714286-53.142857 77.714286-156 12.571429 25.714286 21.142857 41.428571t23.142857 36.285714 29.142857 32.285714 36 20 46.571429 8.285714l146.285714 0 0-109.714286q0-8 5.142857-13.142857t13.142857-5.142857q6.857143 0 13.714286 5.714286l182.285714 182.285714q5.142857 5.142857 5.142857 13.142857zm0-512q0 8-5.142857 13.142857l-182.857143 182.857143q-5.142857 5.142857-13.142857 5.142857-7.428571 0-12.857143-5.428571t-5.428571-12.857143l0-109.714286-146.285714 0q-27.428571 0-49.714286 8.571429t-39.428571 25.714286-29.142857 35.142857-25.714286 44.285714q-18.285714 35.428571-44.571429 97.714286-16.571429 37.714286-28.285714 63.428571t-30.857143 60-36.571429 57.142857-42.285714 47.428571-51.428571 39.142857-60.857143 24-73.142857 9.428571l-128 0q-8 0-13.142857-5.142857t-5.142857-13.142857l0-109.714286q0-8 5.142857-13.142857t13.142857-5.142857l128 0q27.428571 0 49.714286-8.571429t39.428571-25.714286 29.142857-35.142857 25.714286-44.285714q18.285714-35.428571 44.571429-97.714286 16.571429-37.714286 28.285714-63.428571t30.857143-60 36.571429-57.142857 42.285714-47.428571 51.428571-39.142857 60.857143-24 73.142857-9.428571l146.285714 0 0-109.714286q0-8 5.142857-13.142857t13.142857-5.142857q6.857143 0 13.714286 5.714286l182.285714 182.285714q5.142857 5.142857 5.142857 13.142857z" p-id="5425"></path></svg>